<?xml version="1.0" standalone="no"?>
<!DOCTYPE svg PUBLIC "-//W3C//DTD SVG 20010904//EN"
 "http://www.w3.org/TR/2001/REC-SVG-20010904/DTD/svg10.dtd">
<svg version="1.0" xmlns="http://www.w3.org/2000/svg"
 width="1408.000000pt" height="1408.000000pt" viewBox="0 0 1408.000000 1408.000000"
 preserveAspectRatio="xMidYMid meet">
<metadata>
Created by potrace 1.11, written by Peter Selinger 2001-2013
</metadata>
<g transform="translate(0.000000,1408.000000) scale(0.100000,-0.100000)"
fill="#000000" stroke="none">
<path d="M640 10878 c0 -2 -11 -35 -25 -73 -14 -39 -26 -72 -27 -75 -1 -6 -2
-11 -22 -71 -19 -59 -53 -193 -60 -239 -3 -19 -8 -46 -11 -60 -19 -93 -25
-359 -12 -480 11 -94 35 -227 52 -290 9 -30 18 -62 20 -70 31 -115 141 -365
195 -439 11 -16 20 -32 20 -35 0 -4 4 -12 10 -19 5 -7 37 -49 70 -95 120 -165
272 -314 448 -439 17 -13 36 -23 42 -23 5 0 10 -4 10 -10 0 -5 7 -10 15 -10 8
0 15 -4 15 -8 0 -9 212 -121 265 -140 17 -6 120 -47 230 -92 110 -45 205 -83
210 -84 6 -2 24 -9 40 -16 17 -6 59 -23 95 -37 36 -14 71 -29 78 -35 6 -6 12
-8 12 -5 0 3 36 -10 81 -29 44 -19 87 -34 95 -34 8 0 14 -4 14 -10 0 -5 3 -9
8 -8 4 0 16 -2 27 -7 185 -75 342 -135 352 -135 7 0 13 -4 13 -10 0 -5 3 -9 8
-8 4 0 16 -2 27 -7 21 -9 153 -61 194 -76 13 -5 22 -12 19 -15 -3 -2 -17 0
-32 6 -15 5 -37 12 -49 14 -29 6 -40 9 -187 46 -69 18 -132 33 -140 35 -74 18
-393 97 -420 105 -36 10 -341 87 -382 96 -39 9 -53 12 -53 14 0 2 -31 9 -60
14 -11 2 -76 18 -145 36 -69 18 -130 33 -137 34 -7 1 -15 5 -19 8 -3 4 -12 4
-20 1 -8 -3 -14 0 -14 7 0 6 -4 9 -8 6 -5 -3 -26 -1 -47 5 -20 6 -45 12 -54
15 -9 2 -36 8 -61 15 -25 6 -52 12 -60 14 -8 2 -71 18 -140 35 -69 18 -133 33
-143 35 -10 3 -27 7 -37 10 -10 3 -27 8 -37 10 -10 2 -70 17 -133 33 -63 16
-119 27 -123 24 -5 -2 -7 -15 -4 -28 2 -13 0 -24 -5 -24 -5 0 -6 -6 -2 -12 5
-7 9 -33 10 -58 3 -58 23 -188 35 -220 4 -14 10 -37 12 -52 1 -15 6 -30 10
-34 4 -4 7 -17 7 -29 0 -11 4 -25 8 -31 4 -5 14 -27 21 -49 21 -61 90 -202
134 -275 152 -248 395 -465 662 -590 81 -38 255 -103 255 -95 0 2 17 -2 38 -9
21 -8 54 -16 73 -19 19 -3 45 -8 59 -11 25 -6 105 -22 150 -30 14 -3 35 -7 46
-10 12 -2 38 -7 59 -10 20 -4 40 -8 44 -11 4 -2 25 -6 47 -9 41 -6 75 -12 102
-20 9 -3 33 -7 52 -10 19 -3 46 -8 60 -11 14 -3 36 -8 50 -11 14 -2 36 -7 50
-10 14 -3 35 -8 48 -10 12 -2 34 -7 50 -10 15 -3 37 -7 49 -9 12 -2 34 -6 50
-9 48 -11 255 -52 313 -63 14 -2 45 -9 70 -14 25 -6 56 -13 70 -15 14 -3 126
-25 250 -50 124 -25 239 -48 255 -51 17 -3 32 -7 34 -9 5 -4 -57 -8 -74 -4 -5
1 -17 1 -25 1 -8 0 -24 -1 -35 -1 -11 0 -33 0 -50 -1 -42 0 -46 0 -87 3 -20 2
-34 0 -32 -4 3 -5 -6 -4 -19 1 -13 5 -30 5 -37 1 -8 -5 -18 -6 -24 -3 -14 9
-67 9 -73 0 -2 -4 -9 -4 -15 -1 -10 6 -108 9 -133 4 -5 -1 -14 -1 -20 0 -27 6
-75 4 -75 -2 0 -4 -10 -4 -22 1 -13 5 -33 5 -45 0 -13 -5 -23 -5 -23 -1 0 4
-13 7 -30 7 -16 0 -30 -3 -30 -7 0 -4 -12 -3 -27 1 -16 5 -37 5 -48 1 -11 -4
-24 -5 -29 -3 -14 9 -136 8 -136 0 0 -5 -5 -5 -11 -1 -14 8 -142 10 -155 1 -6
-3 -16 -2 -24 3 -7 4 -24 4 -36 0 -13 -5 -25 -6 -28 -2 -5 8 -58 8 -72 -1 -6
-3 -16 -2 -23 3 -8 4 -27 4 -42 0 -16 -5 -29 -6 -29 -2 0 4 -13 7 -30 7 -16 0
-30 -4 -30 -8 0 -5 -5 -5 -11 -1 -10 6 -141 9 -164 4 -5 -1 -12 -1 -15 0 -14
5 -70 4 -70 -2 0 -4 -13 -3 -30 2 -33 9 -34 8 -21 -18 5 -9 35 -69 67 -132 31
-63 65 -128 74 -145 46 -81 66 -113 94 -151 17 -23 38 -52 46 -64 33 -50 59
-80 171 -196 183 -190 444 -361 679 -446 30 -11 64 -24 75 -29 31 -14 208 -59
213 -54 3 2 12 0 21 -4 15 -8 38 -12 141 -27 128 -18 315 -18 391 1 35 9 84
21 109 26 25 6 52 13 60 16 18 8 16 7 65 18 22 4 45 9 50 11 6 1 38 9 73 18
123 31 187 48 202 51 8 2 161 40 340 86 179 45 350 88 380 95 30 7 75 18 100
24 66 17 69 18 140 35 35 9 71 17 80 19 8 2 22 6 30 9 14 5 133 34 170 42 8 2
35 8 60 15 25 7 52 14 60 16 8 2 35 8 60 15 25 6 54 13 65 15 33 8 39 10 60
17 11 3 31 8 45 11 14 3 72 17 130 31 58 15 113 28 123 30 9 2 22 7 27 10 6 3
10 2 10 -2 0 -5 -17 -15 -37 -22 -21 -7 -51 -19 -68 -27 -16 -7 -73 -29 -125
-49 -52 -20 -104 -40 -115 -45 -11 -5 -60 -26 -110 -45 -49 -20 -103 -42 -120
-49 -16 -8 -52 -22 -80 -32 -27 -10 -61 -24 -74 -31 -14 -6 -28 -10 -33 -7 -4
3 -8 0 -8 -5 0 -6 -5 -11 -10 -11 -8 0 -1133 -445 -1215 -480 -11 -5 -60 -25
-110 -45 -49 -20 -99 -40 -110 -44 -11 -5 -51 -21 -90 -36 -38 -15 -79 -31
-90 -36 -11 -4 -94 -38 -185 -74 -302 -122 -546 -263 -755 -437 -55 -46 -321
-305 -593 -576 l-493 -493 778 4 c428 1 789 6 803 10 13 4 41 9 62 12 22 4 67
15 101 26 34 11 69 22 77 24 25 5 144 58 160 70 8 6 35 22 59 34 82 41 189
131 361 302 141 139 174 167 189 160 10 -6 23 -6 31 -1 8 5 21 5 30 0 9 -5 22
-5 30 0 8 5 18 6 23 3 13 -8 273 -6 286 1 6 4 11 3 11 -3 0 -6 11 -6 30 -1 17
5 30 5 30 0 0 -5 13 -5 30 0 17 5 30 5 30 0 0 -5 13 -5 30 0 17 5 30 5 30 0 0
-5 13 -5 30 0 17 5 30 6 30 2 0 -4 16 -7 35 -7 19 0 35 3 35 7 0 4 14 3 30 -2
17 -5 30 -5 30 0 0 5 13 5 30 0 16 -5 32 -5 35 0 3 5 18 5 34 0 16 -4 31 -6
34 -4 2 3 37 7 78 9 127 8 268 28 379 54 25 5 56 12 70 15 60 12 146 39 158
48 6 6 12 8 12 5 0 -6 92 23 135 42 11 5 58 25 105 46 136 59 320 155 320 167
0 4 5 8 10 8 6 0 33 16 60 35 27 19 52 35 56 35 3 0 11 6 19 13 7 6 25 21 41
32 36 26 130 102 173 140 19 16 465 460 991 985 1020 1019 1017 1016 1146
1110 32 24 61 46 64 50 3 3 50 32 105 65 55 32 111 65 125 74 14 8 27 16 30
16 3 1 34 15 70 32 108 52 341 137 410 149 14 3 43 10 65 16 22 7 47 12 55 13
8 1 47 6 85 13 127 21 139 22 279 27 77 3 143 8 147 11 4 2 10 0 14 -6 4 -6
10 -8 15 -5 5 3 42 5 82 5 87 0 253 1 271 1 6 0 41 0 77 0 36 0 72 0 80 0 28
1 285 -11 320 -15 19 -3 58 -7 85 -10 28 -3 61 -8 75 -11 14 -3 48 -10 75 -15
28 -5 60 -12 73 -15 12 -3 30 -7 40 -9 9 -2 82 -21 162 -41 80 -20 153 -39
163 -41 9 -2 25 -6 35 -8 62 -15 121 -28 147 -33 45 -8 338 -13 349 -5 6 3 22
7 36 8 66 7 100 15 165 35 39 12 75 23 81 25 44 8 295 143 324 174 3 3 41 32
85 64 101 75 151 126 161 166 0 3 5 14 9 24 5 11 9 47 9 80 0 134 -98 246
-230 261 -26 4 -51 8 -56 11 -4 3 -8 1 -8 -5 0 -6 -11 -6 -30 -1 -17 5 -30 5
-30 0 0 -5 -13 -5 -30 0 -17 5 -30 5 -30 0 0 -5 -13 -5 -30 0 -17 5 -30 5 -30
0 0 -5 -13 -5 -30 0 -17 5 -30 5 -30 0 0 -5 -13 -5 -29 0 -15 4 -34 4 -42 0
-7 -5 -20 -5 -29 0 -9 5 -22 5 -30 0 -8 -5 -18 -6 -23 -3 -13 8 -97 9 -97 1 0
-4 -13 -3 -30 2 -18 5 -32 5 -36 -1 -3 -5 -12 -6 -21 0 -9 5 -29 5 -45 1 -15
-5 -30 -5 -33 0 -3 6 -16 5 -29 0 -13 -5 -27 -6 -30 -3 -3 4 -23 7 -43 9 -54
3 -102 13 -127 26 -11 6 -21 10 -21 9 0 -3 -36 9 -65 22 -38 17 -131 82 -170
119 -62 58 -105 127 -220 358 -138 275 -180 339 -296 454 -120 119 -327 230
-484 260 -14 3 -36 7 -50 11 -14 3 -68 8 -120 11 -52 3 -98 8 -102 10 -4 3 -8
2 -8 -3 0 -7 -30 -7 -175 -3 -53 2 -257 -33 -295 -51 -3 -1 -9 -3 -15 -4 -48
-9 -268 -126 -295 -156 -3 -3 -16 -12 -29 -21 -12 -9 -58 -49 -102 -88 -89
-82 -143 -123 -214 -167 -97 -58 -243 -115 -332 -128 -12 -2 -35 -6 -51 -10
-16 -3 -63 -8 -104 -10 -41 -2 -79 -5 -84 -6 -5 -1 -13 0 -19 1 -5 1 -37 1
-70 1 -33 -1 -71 -1 -85 -1 -14 0 -52 0 -85 1 -33 0 -64 0 -70 -1 -5 -1 -14
-1 -20 0 -23 5 -142 3 -151 -3 -6 -3 -16 -2 -24 3 -7 4 -24 4 -37 -1 -12 -5
-23 -5 -23 -1 0 8 -63 8 -76 -1 -6 -3 -16 -2 -23 3 -8 4 -27 4 -42 0 -16 -5
-29 -6 -29 -2 0 6 -56 7 -70 2 -3 -1 -9 -1 -15 0 -28 6 -135 4 -135 -3 0 -5
-5 -5 -11 -1 -14 8 -142 10 -155 1 -6 -3 -16 -2 -24 3 -7 4 -24 4 -36 0 -13
-5 -25 -6 -28 -2 -3 6 -61 7 -76 2 -3 -1 -9 -1 -15 0 -5 1 -66 2 -135 1 -136
-1 -130 -1 -225 -1 -36 0 -72 0 -80 0 -8 0 -44 0 -80 0 -36 0 -72 0 -80 0 -8
0 -45 0 -82 0 -111 0 -136 1 -144 6 -4 2 -10 0 -14 -6 -4 -6 -11 -8 -16 -4 -5
3 -78 7 -162 9 -201 5 -387 16 -517 29 -25 3 -72 8 -105 11 -66 7 -121 13
-176 21 -20 2 -54 7 -75 9 -21 2 -48 6 -59 9 -11 2 -49 7 -85 11 -36 4 -67 8
-70 10 -3 2 -26 6 -50 10 -25 3 -72 11 -105 17 -33 6 -69 12 -80 14 -11 1 -20
3 -20 4 0 1 -9 3 -20 5 -27 4 -99 19 -195 40 -57 12 -87 19 -95 21 -5 2 -21 5
-35 8 -14 3 -36 8 -50 12 -14 3 -38 8 -55 11 -16 3 -33 10 -37 16 -4 7 -8 9
-8 6 0 -4 -17 -3 -37 2 -21 5 -48 12 -60 14 -176 39 -837 260 -998 335 -11 5
-42 18 -70 29 -27 11 -68 27 -90 37 -22 10 -42 18 -45 19 -40 13 -478 225
-547 265 -18 11 -33 16 -33 12 0 -4 -4 -2 -8 3 -4 6 -29 22 -57 36 -82 43
-170 92 -175 98 -3 3 -25 17 -50 30 -60 32 -89 49 -122 69 -14 9 -48 30 -75
46 -50 31 -251 160 -268 173 -36 27 -104 73 -109 73 -3 0 -24 12 -45 28 -21
15 -49 34 -61 42 -12 8 -28 20 -35 27 -7 7 -15 9 -19 6 -3 -4 -6 -1 -6 5 0 7
-7 12 -15 12 -8 0 -15 5 -15 10 0 6 -6 10 -14 10 -8 0 -16 3 -18 8 -1 4 -28
23 -58 42 -30 19 -61 40 -68 48 -8 7 -28 20 -45 28 -16 9 -39 25 -50 35 -12
10 -24 19 -29 19 -7 0 -95 57 -108 70 -15 15 -71 50 -80 50 -5 0 -10 5 -10 10
0 6 -7 10 -15 10 -8 0 -15 5 -15 10 0 6 -7 10 -15 10 -8 0 -15 4 -15 9 0 5 -9
13 -20 16 -11 3 -26 12 -32 18 -13 12 -95 68 -113 77 -5 3 -30 19 -54 35 -24
17 -51 35 -60 40 -9 6 -18 12 -21 15 -11 11 -101 70 -106 70 -4 0 -23 14 -44
30 -21 17 -43 30 -49 30 -6 0 -11 4 -11 8 0 5 -12 15 -27 23 -16 7 -44 26 -64
41 -20 15 -39 28 -42 28 -3 0 -27 15 -53 33 -25 17 -53 37 -63 42 -9 6 -18 12
-21 15 -8 8 -60 41 -60 38z"/>
</g>
</svg>
